<svg xmlns="http://www.w3.org/2000/svg" viewBox="0 0 355.24 33.28"><defs><style>.a{fill:#00ac94;}</style></defs><title>Asset 4</title><path class="a" d="M12.32,21.1,0,0H12.23l5.6,10.74L23.48,0H35.57L23.25,21V32.67H12.32Z"/><path class="a" d="M31.68,20v-.09c0-7.19,6-13.35,14.37-13.35s14.28,6.07,14.28,13.26v.09c0,7.19-6,13.35-14.37,13.35S31.68,27.21,31.68,20Zm18.48,0v-.09A4.36,4.36,0,0,0,46,15.4a4.23,4.23,0,0,0-4.11,4.44v.09a4.36,4.36,0,0,0,4.2,4.53A4.23,4.23,0,0,0,50.16,20Z"/><path class="a" d="M62.52,24V7.19h10.6V20.58c0,2.2,1.31,3.46,2.89,3.46a3.15,3.15,0,0,0,3-3.46V7.19H89.64V32.67H79.05v-3.4a9.76,9.76,0,0,1-7.8,4C65.89,33.28,62.52,29.73,62.52,24Z"/><path class="a" d="M93.28,7.19h10.6v5.13c1.45-3.45,3.78-5.69,8-5.51V18.06h-1.12c-4.48,0-6.86,2.48-6.86,8.13v6.48H93.28Z"/><path class="a" d="M145.55,32.67h-2.62V17.93H128.56V32.67h-2.63V.68h2.63v15h14.37V.68h2.62Z"/><path class="a" d="M166.65,23.8H155l-2.72,8.87h-2.73l10.13-32h2.4l10,32h-2.73Zm-10.92-2.42h10.2l-5-16.46h-.14Z"/><path class="a" d="M178.76,23.51l.68,4.33.13,0,.9-4.35L185.83.68h2.42l5.41,22.83.88,4.4h.13l.72-4.4L199.9.68h2.68l-6.68,32h-2.44L187.75,8.26l-.62-3H187l-.57,3-5.8,24.41h-2.44l-6.66-32h2.66Z"/><path class="a" d="M219.2,23.8H207.53l-2.72,8.87h-2.73l10.13-32h2.4l10,32H221.9Zm-10.92-2.42h10.19l-5-16.46h-.13Z"/><path class="a" d="M231.45,32.67h-2.66V.68h2.66Z"/><path class="a" d="M240.26,32.67H237.6V.68h2.66Z"/><path class="a" d="M276.42,28.32a8.46,8.46,0,0,1-3.24,3.31,11,11,0,0,1-6,1.51,10.23,10.23,0,0,1-7.74-3.06c-2-2-2.93-5-2.93-8.77V11.8q0-5.61,2.76-8.59a9.64,9.64,0,0,1,7.41-3,9.79,9.79,0,0,1,7,2.36,9,9,0,0,1,2.59,6.58l0,.13h-2.46a7.19,7.19,0,0,0-1.89-5,7.09,7.09,0,0,0-5.21-1.76,6.88,6.88,0,0,0-5.52,2.37c-1.34,1.57-2,3.86-2,6.85v9.57q0,4.66,2.18,7.11a7.44,7.44,0,0,0,5.86,2.44,8.34,8.34,0,0,0,4.33-1,5.39,5.39,0,0,0,2.27-2.36V19.23h-6.64V16.92h9.29Z"/><path class="a" d="M300.14.68V23.07q0,4.91-2.61,7.48a9.31,9.31,0,0,1-6.81,2.59,9,9,0,0,1-6.66-2.59q-2.55-2.58-2.55-7.48V.68h2.59V23.1a8.26,8.26,0,0,0,1.84,5.78,6.16,6.16,0,0,0,4.78,2A6.58,6.58,0,0,0,295.67,29q1.86-1.92,1.86-5.87V.68Z"/><path class="a" d="M308.42,32.67h-2.66V.68h2.66Z"/><path class="a" d="M314.38,32.67V.68h7.85a10,10,0,0,1,8.15,3.91,15.47,15.47,0,0,1,3.16,10v4.14a15.36,15.36,0,0,1-3.16,10,10.06,10.06,0,0,1-8.15,3.87ZM317,3V30.43h5.21a7.43,7.43,0,0,0,6.27-3.28,13.78,13.78,0,0,0,2.41-8.36v-4.2a13.68,13.68,0,0,0-2.41-8.31A7.44,7.44,0,0,0,322.23,3Z"/><path class="a" d="M353.37,17.21H340.8V30.43h14.44v2.24H338.17V.68h16.94V3H340.8V15h12.57Z"/></svg>